<svg width="32" height="32" fill="none" xmlns="http://www.w3.org/2000/svg"><path d="M24.182 1v23.182L16 20.09l-8.182 4.09V1m16.364 0h2.727A4.09 4.09 0 0 1 31 5.09v21.82A4.09 4.09 0 0 1 26.91 31H5.09A4.09 4.09 0 0 1 1 26.91V5.09A4.09 4.09 0 0 1 5.09 1h2.728m16.364 0H7.818h16.364Z" fill="#C5A880"/><path d="M24.182 1v23.182L16 20.09l-8.182 4.09V1m16.364 0h2.727A4.09 4.09 0 0 1 31 5.09v21.82A4.09 4.09 0 0 1 26.91 31H5.09A4.09 4.09 0 0 1 1 26.91V5.09A4.09 4.09 0 0 1 5.09 1h2.728m16.364 0H7.818" stroke="#424242" stroke-width="2" stroke-linecap="round" stroke-linejoin="round"/></svg>
