<?xml version="1.0" standalone="no"?>
<!DOCTYPE svg PUBLIC "-//W3C//DTD SVG 20010904//EN"
 "http://www.w3.org/TR/2001/REC-SVG-20010904/DTD/svg10.dtd">
<svg version="1.0" xmlns="http://www.w3.org/2000/svg"
 width="888.000000pt" height="138.000000pt" viewBox="0 0 888.000000 138.000000"
 preserveAspectRatio="xMidYMid meet">
<metadata>
Created by potrace 1.16, written by Peter Selinger 2001-2019
</metadata>
<g transform="translate(0.000000,138.000000) scale(0.100000,-0.100000)"
fill="#000000" stroke="none">
<path d="M2530 705 l0 -375 25 0 25 0 0 375 0 375 -25 0 -25 0 0 -375z"/>
<path d="M5900 705 l0 -375 25 0 25 0 0 375 0 375 -25 0 -25 0 0 -375z"/>
<path d="M10 720 l0 -220 110 0 c155 0 200 27 200 119 0 37 -5 49 -33 75 l-34
32 30 27 c27 24 29 32 24 73 -9 86 -60 114 -209 114 l-88 0 0 -220z m220 140
c26 -26 26 -64 0 -90 -16 -16 -33 -20 -90 -20 l-70 0 0 65 0 65 70 0 c57 0 74
-4 90 -20z m8 -186 c15 -10 22 -25 22 -47 0 -59 -30 -77 -124 -77 l-66 0 0 70
0 70 73 0 c49 0 80 -5 95 -16z"/>
<path d="M460 720 l0 -220 135 0 135 0 0 25 0 25 -105 0 -105 0 0 195 0 195
-30 0 -30 0 0 -220z"/>
<path d="M926 730 c-42 -116 -76 -215 -76 -220 0 -6 13 -10 29 -10 28 0 30 3
90 176 33 97 61 180 61 185 0 5 4 9 8 9 8 0 42 -93 115 -307 20 -60 23 -63 54
-63 l32 0 -40 113 c-22 61 -58 159 -78 217 l-38 105 -40 3 -40 3 -77 -211z"/>
<path d="M1350 721 l0 -221 30 0 30 0 2 165 3 165 105 -165 c100 -157 106
-164 138 -165 l32 0 0 220 0 220 -30 0 -30 0 -1 -172 c0 -138 -3 -169 -12
-155 -7 10 -55 87 -108 170 -88 139 -99 152 -128 155 l-31 3 0 -220z"/>
<path d="M1840 720 l0 -220 30 0 30 0 0 220 0 220 -30 0 -30 0 0 -220z"/>
<path d="M2010 835 c-47 -57 -85 -110 -85 -116 0 -6 36 -58 80 -115 76 -99 82
-103 118 -104 l39 0 -86 104 c-47 58 -86 110 -86 116 0 7 36 54 80 106 44 51
80 98 80 104 0 5 -12 10 -27 10 -23 0 -42 -18 -113 -105z"/>
<path d="M3025 921 c-79 -37 -115 -101 -115 -208 1 -103 47 -184 123 -212 42
-16 141 -13 187 5 44 18 46 21 26 47 -13 17 -17 17 -51 3 -84 -36 -171 -8
-207 64 -43 85 -10 216 62 252 44 22 77 22 137 2 44 -15 48 -15 60 2 17 24 3
39 -52 53 -64 16 -124 13 -170 -8z"/>
<path d="M5280 922 c-41 -20 -60 -53 -60 -104 0 -48 32 -86 108 -126 91 -49
120 -94 83 -131 -32 -32 -64 -35 -117 -11 -46 20 -49 20 -61 4 -19 -27 -16
-34 22 -50 45 -18 138 -18 175 1 38 20 50 43 50 98 0 57 -21 83 -110 136 -38
23 -74 50 -80 61 -38 71 45 116 135 73 31 -15 37 -15 45 -3 17 27 11 38 -30
54 -53 21 -116 20 -160 -2z"/>
<path d="M6357 925 c-53 -18 -81 -47 -107 -108 -32 -74 -25 -181 16 -239 47
-66 75 -82 155 -86 50 -3 83 1 115 13 48 18 50 21 30 48 -12 16 -16 16 -49 2
-121 -50 -227 24 -227 158 0 80 33 136 94 162 45 18 50 19 109 3 57 -15 63
-15 75 0 19 25 15 30 -40 47 -63 18 -120 19 -171 0z"/>
<path d="M3431 722 c-41 -114 -76 -213 -79 -220 -3 -10 4 -13 29 -10 l33 3 65
187 c36 103 68 184 72 180 4 -4 32 -81 64 -172 70 -200 70 -200 100 -200 32 0
32 13 -4 108 -16 42 -41 109 -54 147 -69 195 -64 185 -110 185 l-42 0 -74
-208z"/>
<path d="M3860 709 l0 -220 28 3 27 3 5 164 5 163 105 -166 c94 -148 108 -166
133 -166 l27 0 0 220 0 220 -30 0 -30 0 -2 -162 -3 -163 -24 40 c-14 22 -60
95 -104 163 -71 110 -82 122 -108 122 l-29 0 0 -221z"/>
<path d="M4351 818 c23 -62 57 -160 78 -218 l37 -105 41 -3 40 -3 36 98 c20
54 56 153 80 221 l45 122 -33 0 -33 0 -65 -187 -65 -188 -16 35 c-8 19 -39
104 -68 188 l-52 152 -33 0 -32 0 40 -112z"/>
<path d="M4871 903 c-22 -55 -141 -397 -141 -405 0 -4 13 -8 29 -8 28 0 30 4
77 138 26 75 57 163 69 194 l21 57 31 -92 c109 -318 97 -292 132 -295 17 -2
31 1 31 6 0 5 -17 56 -38 113 -21 57 -56 152 -77 212 l-39 107 -42 0 c-36 0
-43 -4 -53 -27z"/>
<path d="M6821 908 c-57 -151 -141 -392 -141 -403 0 -10 10 -15 28 -15 26 0
29 5 92 186 36 102 67 187 70 189 3 2 30 -67 59 -153 79 -228 76 -222 112
-222 24 0 29 3 24 18 -3 9 -38 107 -78 217 l-73 200 -42 3 c-36 3 -43 0 -51
-20z"/>
<path d="M7180 710 l0 -220 30 0 30 0 0 100 0 100 76 0 c85 0 121 15 148 60
33 56 12 136 -44 165 -20 11 -60 15 -135 15 l-105 0 0 -220z m214 149 c32 -25
35 -68 5 -95 -15 -13 -40 -20 -90 -22 l-69 -4 0 71 0 71 64 0 c49 0 69 -5 90
-21z"/>
<path d="M7600 710 l0 -220 30 0 30 0 0 220 0 220 -30 0 -30 0 0 -220z"/>
<path d="M7760 905 c0 -24 3 -25 60 -25 l60 0 2 -192 3 -193 28 -3 27 -3 0
195 0 196 60 0 c57 0 60 1 60 25 l0 25 -150 0 -150 0 0 -25z"/>
<path d="M8156 718 c-42 -117 -76 -216 -76 -220 0 -5 13 -8 29 -8 32 0 28 -9
126 277 l39 113 64 -183 c35 -100 66 -188 68 -194 4 -15 64 -18 64 -3 0 5 -15
51 -34 102 -19 51 -53 146 -77 211 l-42 117 -42 0 -42 0 -77 -212z"/>
<path d="M8582 713 l3 -218 138 -3 137 -3 0 31 0 30 -105 0 -105 0 0 190 0
190 -35 0 -35 0 2 -217z"/>
</g>
</svg>
