<svg width="593" height="595" viewBox="0 0 593 595" fill="none" xmlns="http://www.w3.org/2000/svg">
<style>
  #sqaure {
    stroke: black;
  }

	#text {
		fill: black;
	}

  @media (prefers-color-scheme: dark) {
    #square { stroke: #ffffff; }
		#text { fill: #ffffff; }
  }
</style>
<path id="square" d="M85 258.199V59H518V528H437.229" stroke-width="8"/>
<path id="text" fill-rule="evenodd" clip-rule="evenodd" d="M113.387 313.152C113.379 313.158 113.37 313.165 113.362 313.171C113.37 313.165 113.379 313.158 113.387 313.152M374.762 411.9C376.631 413.171 378.989 414.585 381.836 416.141C384.498 417.58 386.587 418.813 388.143 419.758C387.938 419.633 387.703 419.49 387.445 419.333C385.95 418.42 383.658 417.022 381.553 415.848C381.27 415.69 380.991 415.537 380.717 415.389C378.088 413.952 376.243 412.883 374.762 411.9ZM374.762 411.9C373.62 411.123 372.66 410.4 371.883 409.73C372.757 410.484 373.659 411.168 374.762 411.9ZM389.305 407.116C388.907 406.894 388.522 406.679 388.148 406.471C388.052 406.417 387.956 406.364 387.861 406.311C387.956 406.364 388.052 406.418 388.149 406.472L388.841 406.857C388.993 406.942 389.148 407.029 389.305 407.116ZM225.971 343.07C225.943 343.032 225.903 342.965 225.859 342.856L221.119 329.408L221.119 329.406L208.918 294.661L196.717 329.406L196.716 329.408L191.977 342.856C191.933 342.965 191.892 343.032 191.865 343.07C191.837 343.108 191.817 343.121 191.817 343.121C191.817 343.121 191.814 343.124 191.807 343.127C191.801 343.13 191.792 343.133 191.781 343.137C191.753 343.145 191.694 343.157 191.593 343.157H183.811C183.693 343.157 183.62 343.145 183.58 343.136C183.555 343.068 183.535 342.972 183.535 342.832C183.535 342.839 183.535 342.838 183.536 342.83C183.54 342.803 183.555 342.689 183.621 342.453C183.7 342.17 183.824 341.8 184.001 341.327L203.544 287.263L203.55 287.245C203.594 287.12 203.718 287.021 203.88 287.021H213.914C214.015 287.021 214.076 287.033 214.107 287.042C214.136 287.051 214.148 287.058 214.153 287.062C214.153 287.062 214.222 287.106 214.306 287.301L233.828 341.31L233.834 341.327C234.011 341.8 234.136 342.17 234.214 342.453C234.28 342.689 234.296 342.803 234.3 342.83C234.301 342.838 234.301 342.839 234.301 342.832C234.301 342.972 234.28 343.068 234.255 343.136C234.216 343.145 234.143 343.157 234.024 343.157H226.242C226.142 343.157 226.083 343.145 226.054 343.137C226.029 343.129 226.018 343.121 226.018 343.121C226.018 343.121 225.999 343.108 225.971 343.07ZM173.792 439.519C173.765 439.481 173.724 439.414 173.68 439.305L168.941 425.857L168.94 425.855L156.739 391.11L144.539 425.855L144.538 425.857L139.798 439.305C139.754 439.414 139.714 439.481 139.686 439.519C139.658 439.557 139.639 439.57 139.639 439.57C139.639 439.57 139.628 439.578 139.603 439.586C139.574 439.594 139.515 439.606 139.415 439.606H131.633C131.514 439.606 131.441 439.594 131.402 439.585C131.377 439.517 131.356 439.421 131.356 439.281C131.356 439.288 131.356 439.287 131.357 439.279C131.361 439.252 131.377 439.138 131.443 438.902C131.521 438.619 131.646 438.249 131.823 437.776L151.365 383.712L151.371 383.694C151.415 383.569 151.54 383.47 151.702 383.47H161.736C161.836 383.47 161.897 383.482 161.929 383.491C161.958 383.5 161.97 383.507 161.975 383.511C161.975 383.511 162.043 383.554 162.127 383.75L181.65 437.759L181.656 437.776C181.833 438.249 181.957 438.619 182.036 438.902C182.102 439.138 182.117 439.252 182.121 439.279C182.122 439.287 182.122 439.288 182.122 439.281C182.122 439.421 182.102 439.517 182.077 439.585C182.037 439.594 181.964 439.606 181.846 439.606H174.064C173.963 439.606 173.904 439.594 173.876 439.586C173.851 439.578 173.84 439.57 173.84 439.57C173.84 439.57 173.82 439.557 173.792 439.519ZM348.185 439.519C348.157 439.481 348.117 439.414 348.073 439.305L343.333 425.857L343.333 425.855L331.132 391.11L318.931 425.855L318.93 425.857L314.191 439.305C314.147 439.414 314.106 439.481 314.079 439.519C314.051 439.557 314.031 439.571 314.031 439.571C314.031 439.571 314.02 439.578 313.995 439.586C313.977 439.591 313.947 439.597 313.901 439.602C313.875 439.604 313.844 439.606 313.807 439.606H306.026C305.907 439.606 305.834 439.594 305.795 439.585C305.769 439.517 305.749 439.422 305.749 439.282C305.752 439.262 305.766 439.149 305.835 438.902C305.914 438.619 306.038 438.249 306.215 437.776L325.758 383.712L325.764 383.694C325.808 383.569 325.932 383.47 326.094 383.47H336.128C336.229 383.47 336.29 383.482 336.321 383.491C336.35 383.5 336.362 383.507 336.367 383.511C336.367 383.511 336.436 383.554 336.52 383.75L356.042 437.759L356.048 437.776C356.225 438.249 356.35 438.619 356.428 438.902C356.494 439.138 356.51 439.252 356.514 439.279C356.515 439.287 356.515 439.288 356.515 439.281C356.515 439.421 356.494 439.517 356.469 439.585C356.43 439.594 356.357 439.606 356.238 439.606H348.456C348.356 439.606 348.297 439.594 348.268 439.586C348.243 439.578 348.232 439.57 348.232 439.57C348.232 439.57 348.213 439.557 348.185 439.519ZM173.792 535.968C173.765 535.93 173.724 535.863 173.68 535.754L168.941 522.306L168.94 522.304L156.739 487.559L144.539 522.304L144.538 522.306L139.798 535.754C139.754 535.863 139.714 535.93 139.686 535.968C139.658 536.006 139.639 536.019 139.639 536.019C139.639 536.019 139.635 536.022 139.626 536.026C139.62 536.029 139.612 536.032 139.603 536.034C139.574 536.043 139.515 536.055 139.415 536.055H131.633C131.514 536.055 131.441 536.043 131.402 536.034C131.377 535.966 131.356 535.87 131.356 535.73C131.356 535.736 131.356 535.736 131.357 535.728C131.361 535.701 131.377 535.587 131.443 535.351C131.521 535.068 131.646 534.698 131.823 534.225L151.365 480.161L151.371 480.143C151.415 480.018 151.54 479.919 151.702 479.919H161.736C161.836 479.919 161.897 479.931 161.929 479.94C161.943 479.944 161.954 479.949 161.961 479.952C161.968 479.955 161.972 479.958 161.975 479.96C161.978 479.962 162.045 480.006 162.127 480.198L181.65 534.208L181.656 534.225C181.833 534.698 181.957 535.068 182.036 535.351C182.102 535.587 182.117 535.701 182.121 535.728C182.122 535.736 182.122 535.736 182.122 535.73C182.122 535.87 182.102 535.966 182.077 536.034C182.037 536.043 181.964 536.055 181.846 536.055H174.064C173.963 536.055 173.904 536.043 173.876 536.034C173.85 536.027 173.84 536.019 173.84 536.019C173.84 536.019 173.82 536.006 173.792 535.968ZM351.789 535.968C351.761 535.93 351.721 535.863 351.677 535.754L346.937 522.306L346.937 522.304L334.736 487.559L322.535 522.304L322.535 522.306L317.795 535.754C317.751 535.863 317.71 535.93 317.683 535.968C317.655 536.006 317.636 536.019 317.636 536.019C317.636 536.019 317.632 536.022 317.628 536.024C317.623 536.027 317.614 536.03 317.599 536.034C317.571 536.043 317.512 536.055 317.411 536.055H309.63C309.511 536.055 309.438 536.043 309.399 536.034C309.374 535.966 309.353 535.87 309.353 535.73C309.353 535.759 309.353 535.659 309.439 535.351C309.518 535.068 309.643 534.698 309.819 534.225L329.362 480.161L329.368 480.143C329.412 480.018 329.536 479.919 329.698 479.919H339.733C339.833 479.919 339.894 479.931 339.925 479.94C339.942 479.945 339.954 479.95 339.961 479.953C339.966 479.956 339.971 479.96 339.971 479.96C339.971 479.96 340.04 480.003 340.124 480.198L359.646 534.208L359.653 534.225C359.829 534.698 359.954 535.068 360.033 535.351C360.098 535.587 360.114 535.701 360.118 535.728C360.119 535.736 360.119 535.736 360.119 535.73C360.119 535.87 360.098 535.966 360.073 536.034C360.034 536.043 359.961 536.055 359.842 536.055H352.061C351.96 536.055 351.901 536.043 351.873 536.034C351.847 536.027 351.836 536.019 351.836 536.019C351.836 536.019 351.817 536.006 351.789 535.968ZM111.021 312.673L108.639 314.016L110.907 315.544C116.095 319.041 118.394 322.935 118.394 327.214C118.394 332.433 115.901 337.046 111.49 339.986C108.323 342.079 104.521 343.157 100.096 343.157H78.4715C78.2631 343.157 78.0717 342.973 78.0717 342.75V287.387C78.0717 287.207 78.2193 287.021 78.4715 287.021H98.5401C102.917 287.021 106.64 288.096 109.814 290.194C114.133 293.046 116.592 297.613 116.592 302.8C116.592 305.132 116.11 307.064 115.209 308.657C114.309 310.246 112.94 311.59 111.021 312.673ZM86.1615 294.288V311.271H98.5401C101.065 311.271 103.295 310.669 105.14 309.418L105.15 309.411L105.161 309.403C107.405 307.832 108.502 305.572 108.502 302.8C108.502 300.052 107.422 297.733 105.153 296.191C103.299 294.888 101.059 294.288 98.5401 294.288H86.1615ZM86.1615 318.579V335.849H100.096C102.682 335.849 105.015 335.256 106.886 333.937L106.887 333.936C109.155 332.333 110.304 330.042 110.304 327.214C110.304 324.386 109.155 322.095 106.887 320.491L106.886 320.49C105.015 319.171 102.682 318.579 100.096 318.579H86.1615ZM142.681 287.387V335.849H169.845C170.054 335.849 170.245 336.032 170.245 336.256V342.75C170.245 342.973 170.054 343.157 169.845 343.157H134.991C134.783 343.157 134.592 342.973 134.592 342.75V287.387C134.592 287.207 134.739 287.021 134.991 287.021H142.282C142.534 287.021 142.681 287.207 142.681 287.387ZM255.914 287.202L283.059 329.848V287.387C283.059 287.207 283.206 287.021 283.459 287.021H290.626C290.878 287.021 291.026 287.207 291.026 287.387V342.75C291.026 342.973 290.834 343.157 290.626 343.157H283.377C283.233 343.157 283.18 343.129 283.167 343.122C283.153 343.114 283.103 343.085 283.03 342.977L255.926 300.322V342.75C255.926 342.973 255.735 343.157 255.526 343.157H248.359C248.15 343.157 247.959 342.973 247.959 342.75V287.387C247.959 287.207 248.107 287.021 248.359 287.021H255.567C255.711 287.021 255.764 287.049 255.777 287.056C255.791 287.064 255.841 287.093 255.914 287.202ZM328.07 314.842L350.79 287.679C350.888 287.553 350.904 287.469 350.904 287.387C350.904 287.278 350.883 287.238 350.873 287.22C350.86 287.198 350.817 287.13 350.682 287.032C350.651 287.028 350.594 287.021 350.504 287.021H342.436C342.324 287.021 342.274 287.041 342.255 287.05C342.237 287.058 342.197 287.081 342.138 287.151L319.342 314.799L341.737 343.037C341.792 343.101 341.828 343.12 341.845 343.128C341.864 343.137 341.915 343.157 342.026 343.157H350.873C350.956 343.157 351.009 343.14 351.047 343.122C351.088 343.102 351.134 343.069 351.179 343.018C351.226 342.965 351.264 342.902 351.288 342.84C351.314 342.775 351.313 342.74 351.313 342.75C351.313 342.733 351.312 342.713 351.298 342.678C351.284 342.642 351.25 342.571 351.166 342.467L351.161 342.461L328.07 314.842ZM317.739 343.157C317.947 343.157 318.139 342.973 318.139 342.75V287.387C318.139 287.207 317.991 287.021 317.739 287.021H310.449C310.197 287.021 310.049 287.207 310.049 287.387V342.75C310.049 342.973 310.24 343.157 310.449 343.157H317.739ZM116.804 429.373L120.111 435.056L120.124 435.077C120.144 435.109 120.148 435.126 120.148 435.126C120.149 435.13 120.155 435.154 120.155 435.212C120.155 435.321 120.134 435.361 120.125 435.379C120.111 435.402 120.066 435.472 119.925 435.573C117.434 437.145 114.534 438.39 111.25 439.293C108.062 440.122 104.933 440.551 101.776 440.551C97.684 440.551 93.98 439.809 90.6432 438.385L90.6414 438.384C87.1323 436.891 84.1502 434.633 81.6487 431.659C79.4253 429.004 77.7272 425.876 76.6022 422.295C75.5491 418.929 75 415.36 75 411.538C75 407.716 75.5491 404.147 76.6022 400.781L76.6031 400.778C77.728 397.158 79.4257 394.03 81.6487 391.376C84.144 388.41 87.1237 386.188 90.6414 384.692L90.6432 384.691C93.98 383.267 97.684 382.525 101.776 382.525C104.933 382.525 108.063 382.954 111.251 383.783C114.548 384.69 117.444 385.897 119.925 387.462C120.065 387.563 120.107 387.629 120.119 387.65C120.128 387.667 120.155 387.72 120.155 387.864C120.155 387.922 120.149 387.946 120.148 387.951C120.147 387.954 120.143 387.968 120.124 387.999L120.111 388.02L116.804 393.703L116.787 393.734C116.76 393.785 116.741 393.807 116.735 393.813C116.73 393.818 116.728 393.819 116.728 393.819C116.728 393.819 116.655 393.861 116.438 393.861H116.435C116.407 393.861 116.362 393.861 116.25 393.789C114.29 392.378 111.97 391.365 109.262 390.632L109.251 390.629C106.786 389.978 104.265 389.628 101.694 389.628C98.7307 389.628 96.0059 390.205 93.564 391.451C91.0427 392.696 88.9132 394.572 87.2133 396.952L87.2002 396.971C84.4259 400.967 83.0897 405.843 83.0897 411.538C83.0897 417.193 84.4266 422.069 87.2002 426.064L87.2048 426.071C90.6506 430.985 95.5623 433.448 101.776 433.448C104.268 433.448 106.788 433.098 109.251 432.447L109.262 432.444C111.97 431.711 114.29 430.698 116.25 429.287C116.363 429.215 116.407 429.215 116.435 429.215H116.438C116.655 429.215 116.728 429.257 116.728 429.257L116.73 429.258C116.73 429.258 116.733 429.26 116.735 429.263C116.741 429.269 116.76 429.291 116.787 429.342L116.804 429.373ZM203.736 383.651L230.88 426.297V383.836C230.88 383.656 231.028 383.47 231.28 383.47H238.447C238.7 383.47 238.847 383.656 238.847 383.836V439.199C238.847 439.422 238.656 439.606 238.447 439.606H231.198C231.054 439.606 231.001 439.578 230.988 439.571C230.974 439.563 230.925 439.534 230.851 439.426L203.747 396.771V439.199C203.747 439.422 203.556 439.606 203.348 439.606H196.18C195.972 439.606 195.781 439.422 195.781 439.199V383.836C195.781 383.656 195.928 383.47 196.18 383.47H203.389C203.532 383.47 203.586 383.498 203.598 383.505C203.612 383.513 203.662 383.542 203.736 383.651ZM278.544 431.916L295.485 383.771C295.529 383.662 295.569 383.595 295.597 383.558C295.625 383.519 295.644 383.506 295.644 383.506C295.644 383.506 295.648 383.503 295.655 383.5C295.661 383.497 295.669 383.494 295.68 383.491C295.709 383.482 295.768 383.47 295.868 383.47H303.65C303.761 383.47 303.81 383.492 303.829 383.501C303.847 383.51 303.891 383.536 303.953 383.624L303.973 383.652L303.994 383.679C304.002 383.689 304.008 383.698 304.013 383.706C303.967 383.845 303.904 384.028 303.826 384.256C303.617 384.86 303.303 385.753 302.881 386.939C302.038 389.308 300.774 392.83 299.087 397.504C295.716 406.847 290.663 420.787 283.932 439.326C283.887 439.432 283.847 439.497 283.82 439.534C283.805 439.553 283.795 439.565 283.789 439.571C283.782 439.577 283.779 439.58 283.779 439.58L283.777 439.581C283.777 439.581 283.775 439.582 283.77 439.584C283.767 439.585 283.764 439.586 283.759 439.587C283.749 439.59 283.731 439.594 283.705 439.598C283.675 439.602 283.635 439.606 283.581 439.606H273.547C273.43 439.606 273.358 439.592 273.321 439.582C273.302 439.577 273.291 439.572 273.285 439.569C273.28 439.567 273.278 439.565 273.278 439.565C273.278 439.565 273.277 439.565 273.276 439.564C273.275 439.564 273.275 439.563 273.274 439.562C273.274 439.562 273.27 439.559 273.268 439.556C273.265 439.552 273.261 439.547 273.256 439.541C273.238 439.516 273.205 439.461 273.169 439.362C266.432 420.806 261.384 406.854 258.022 397.506C256.34 392.832 255.081 389.31 254.242 386.941C253.822 385.755 253.509 384.862 253.302 384.259C253.216 384.01 253.15 383.815 253.103 383.671C253.108 383.66 253.111 383.656 253.111 383.656L253.123 383.64L253.134 383.624C253.196 383.538 253.237 383.515 253.253 383.507C253.272 383.497 253.333 383.47 253.478 383.47H261.219C261.386 383.47 261.456 383.497 261.474 383.506C261.489 383.52 261.536 383.577 261.589 383.732L278.544 431.916ZM394.542 426.827C395.074 422.145 387.473 417.078 382.646 414.659L382.642 414.657C378.089 412.168 374.902 410.102 372.993 408.456C371.323 406.999 370.09 405.219 369.286 403.091L369.28 403.074C368.62 401.382 368.289 399.617 368.289 397.769C368.289 395.024 368.886 392.591 370.052 390.435L370.061 390.418C372.759 385.292 377.801 382.566 385.686 382.566C392.134 382.566 397.686 384.247 402.37 387.522L402.379 387.528C402.537 387.638 402.583 387.71 402.595 387.733C402.605 387.75 402.632 387.802 402.632 387.946C402.632 387.968 402.63 387.979 402.628 387.984C402.627 387.989 402.621 388.006 402.601 388.04L402.585 388.065L399.359 393.679C399.246 393.846 399.17 393.901 399.146 393.915C399.133 393.923 399.121 393.928 399.106 393.932C399.09 393.936 399.056 393.943 398.997 393.943C398.958 393.943 398.929 393.94 398.909 393.937C398.893 393.934 398.882 393.931 398.875 393.929C398.861 393.924 398.841 393.916 398.807 393.89L398.784 393.872L398.761 393.855C397.435 392.891 395.634 391.932 393.382 390.927C391.001 389.846 388.44 389.262 385.714 389.217L385.7 389.217H385.686C383.454 389.217 381.403 389.674 379.676 390.744L379.659 390.755C377.576 392.081 376.379 393.977 376.379 396.331C376.379 399.958 379.054 403.029 383.241 405.618L383.258 405.628C384.406 406.319 385.785 407.088 387.342 407.955L387.342 407.956C387.772 408.195 388.215 408.442 388.67 408.696L388.677 408.7C393.025 411.106 396.056 413.093 397.931 414.705C399.599 416.161 400.831 417.941 401.635 420.068L401.642 420.084C402.301 421.777 402.632 423.541 402.632 425.389C402.632 428.134 402.035 430.567 400.869 432.724L400.86 432.74C398.162 437.866 393.12 440.592 385.235 440.592C378.787 440.592 373.235 438.911 368.551 435.636L368.542 435.63C368.384 435.521 368.338 435.448 368.326 435.426C368.317 435.409 368.289 435.356 368.289 435.212C368.289 435.19 368.292 435.18 368.293 435.175C368.293 435.175 368.294 435.173 368.294 435.17C368.295 435.168 368.297 435.164 368.298 435.16C368.302 435.151 368.309 435.137 368.32 435.118L368.336 435.093L371.562 429.48C371.675 429.312 371.751 429.258 371.775 429.243C371.788 429.235 371.8 429.23 371.815 429.226C371.831 429.222 371.865 429.215 371.924 429.215C371.994 429.215 372.03 429.224 372.046 429.23C372.06 429.234 372.08 429.242 372.114 429.269L372.137 429.286L372.16 429.303C373.485 430.266 375.286 431.226 377.492 432.229L377.503 432.233C379.918 433.311 382.477 433.897 385.207 433.941L385.221 433.942H385.235C387.911 433.942 390.169 433.303 391.906 431.883C393.572 430.561 394.542 428.875 394.542 426.827ZM116.804 525.822L120.111 531.505L120.124 531.526C120.143 531.557 120.147 531.571 120.148 531.575C120.149 531.579 120.155 531.603 120.155 531.661C120.155 531.77 120.134 531.81 120.125 531.828C120.111 531.851 120.066 531.92 119.925 532.022C117.434 533.594 114.535 534.839 111.251 535.742C108.063 536.571 104.933 537 101.776 537C97.6841 537 93.98 536.258 90.6432 534.834L90.6414 534.833C87.133 533.341 84.1515 531.083 81.6503 528.11C79.4257 525.454 77.7268 522.325 76.6016 518.742C75.5489 515.377 75 511.808 75 507.987C75 504.165 75.5491 500.596 76.6022 497.23L76.6031 497.227C77.728 493.607 79.4256 490.479 81.6487 487.825C84.1439 484.859 87.1237 482.637 90.6414 481.141L90.6432 481.14C93.98 479.716 97.684 478.974 101.776 478.974C104.933 478.974 108.062 479.403 111.25 480.232C114.548 481.139 117.443 482.346 119.925 483.911C120.065 484.011 120.107 484.078 120.119 484.099C120.128 484.116 120.155 484.169 120.155 484.313C120.155 484.371 120.149 484.395 120.148 484.4C120.147 484.403 120.143 484.417 120.124 484.448L120.111 484.469L116.804 490.152L116.787 490.183C116.76 490.234 116.741 490.256 116.735 490.262C116.731 490.267 116.728 490.268 116.728 490.268C116.728 490.268 116.655 490.31 116.438 490.31H116.435C116.407 490.31 116.363 490.31 116.25 490.238C114.29 488.827 111.97 487.814 109.262 487.081L109.251 487.078C106.786 486.427 104.265 486.077 101.694 486.077C98.7307 486.077 96.0059 486.654 93.564 487.9C91.0427 489.144 88.9132 491.021 87.2133 493.401L87.2002 493.42C84.4259 497.416 83.0897 502.292 83.0897 507.987C83.0897 513.642 84.4266 518.518 87.2002 522.513L87.2048 522.52C90.6506 527.434 95.5623 529.897 101.776 529.897C104.268 529.897 106.788 529.547 109.251 528.896L109.262 528.893C111.97 528.16 114.29 527.147 116.25 525.736C116.363 525.664 116.407 525.664 116.435 525.664H116.438C116.655 525.664 116.728 525.706 116.728 525.706C116.728 525.706 116.731 525.707 116.735 525.712C116.741 525.718 116.76 525.74 116.787 525.791L116.804 525.822ZM216.29 511.477H203.87V535.648C203.87 535.871 203.679 536.055 203.471 536.055H196.18C195.972 536.055 195.781 535.871 195.781 535.648V480.285C195.781 480.105 195.928 479.919 196.18 479.919H216.29C220.624 479.919 224.348 480.993 227.523 483.092C231.842 485.944 234.301 490.511 234.301 495.698C234.301 500.869 231.854 505.366 227.514 508.31C224.341 510.405 220.62 511.477 216.29 511.477ZM203.87 487.186V504.169H216.29C218.809 504.169 221.051 503.569 222.867 502.303L222.87 502.301C225.114 500.73 226.211 498.47 226.211 495.698C226.211 492.953 225.133 490.637 222.87 489.095C221.046 487.781 218.799 487.186 216.29 487.186H203.87ZM307.582 487.186H292.91V535.648C292.91 535.915 292.716 536.055 292.551 536.055H285.22C285.055 536.055 284.861 535.915 284.861 535.648V487.186H270.189C269.98 487.186 269.789 487.003 269.789 486.779V480.285C269.789 480.105 269.936 479.919 270.189 479.919H307.582C307.834 479.919 307.982 480.105 307.982 480.285V486.779C307.982 487.003 307.79 487.186 307.582 487.186ZM381.867 480.285V528.747H409.031C409.239 528.747 409.431 528.93 409.431 529.154V535.648C409.431 535.871 409.239 536.055 409.031 536.055H374.177C373.969 536.055 373.777 535.871 373.777 535.648V480.285C373.777 480.105 373.925 479.919 374.177 479.919H381.467C381.72 479.919 381.867 480.105 381.867 480.285ZM257.114 535.648C257.114 535.871 256.922 536.055 256.714 536.055H249.424C249.215 536.055 249.024 535.871 249.024 535.648V480.285C249.024 480.105 249.171 479.919 249.424 479.919H256.714C256.966 479.919 257.114 480.105 257.114 480.285V535.648Z" fill="black"/>
</svg>
